<svg width="73" height="24" viewBox="0 0 73 24" fill="none" xmlns="http://www.w3.org/2000/svg">
<path d="M2.76 19C2.37333 19 2.06667 18.8933 1.84 18.68C1.62667 18.4667 1.52 18.1667 1.52 17.78V6.12C1.52 5.73333 1.62667 5.43333 1.84 5.22C2.06667 5.00667 2.37333 4.9 2.76 4.9H6.72C9.02667 4.9 10.8133 5.52 12.08 6.76C13.36 7.98667 14 9.71333 14 11.94C14 14.18 13.36 15.92 12.08 17.16C10.8133 18.3867 9.02667 19 6.72 19H2.76ZM6.56 16.9C9.8 16.9 11.42 15.2467 11.42 11.94C11.42 8.64667 9.8 7 6.56 7H4.1V16.9H6.56ZM24.0181 16.32C24.2448 16.32 24.4248 16.4067 24.5581 16.58C24.7048 16.7533 24.7781 16.9867 24.7781 17.28C24.7781 17.6933 24.5315 18.04 24.0381 18.32C23.5848 18.5733 23.0715 18.78 22.4981 18.94C21.9248 19.0867 21.3781 19.16 20.8581 19.16C19.2848 19.16 18.0381 18.7067 17.1181 17.8C16.1981 16.8933 15.7381 15.6533 15.7381 14.08C15.7381 13.08 15.9381 12.1933 16.3381 11.42C16.7381 10.6467 17.2981 10.0467 18.0181 9.62C18.7515 9.19333 19.5781 8.98 20.4981 8.98C21.3781 8.98 22.1448 9.17333 22.7981 9.56C23.4515 9.94667 23.9581 10.4933 24.3181 11.2C24.6781 11.9067 24.8581 12.74 24.8581 13.7C24.8581 14.2733 24.6048 14.56 24.0981 14.56H18.1981C18.2781 15.48 18.5381 16.16 18.9781 16.6C19.4181 17.0267 20.0581 17.24 20.8981 17.24C21.3248 17.24 21.6981 17.1867 22.0181 17.08C22.3515 16.9733 22.7248 16.8267 23.1381 16.64C23.5381 16.4267 23.8315 16.32 24.0181 16.32ZM20.5581 10.74C19.8781 10.74 19.3315 10.9533 18.9181 11.38C18.5181 11.8067 18.2781 12.42 18.1981 13.22H22.7181C22.6915 12.4067 22.4915 11.7933 22.1181 11.38C21.7448 10.9533 21.2248 10.74 20.5581 10.74ZM31.1431 19.16C30.1698 19.16 29.3098 18.9533 28.5631 18.54C27.8298 18.1267 27.2631 17.54 26.8631 16.78C26.4631 16.02 26.2631 15.1333 26.2631 14.12C26.2631 13.1067 26.4698 12.2133 26.8831 11.44C27.3098 10.6533 27.9031 10.0467 28.6631 9.62C29.4231 9.19333 30.2965 8.98 31.2831 8.98C31.8031 8.98 32.3231 9.05333 32.8431 9.2C33.3765 9.34667 33.8431 9.54667 34.2431 9.8C34.6698 10.08 34.8831 10.4333 34.8831 10.86C34.8831 11.1533 34.8098 11.3933 34.6631 11.58C34.5298 11.7533 34.3498 11.84 34.1231 11.84C33.9765 11.84 33.8231 11.8067 33.6631 11.74C33.5031 11.6733 33.3431 11.5933 33.1831 11.5C32.8898 11.3267 32.6098 11.1933 32.3431 11.1C32.0765 10.9933 31.7698 10.94 31.4231 10.94C30.5965 10.94 29.9565 11.2133 29.5031 11.76C29.0631 12.2933 28.8431 13.0667 28.8431 14.08C28.8431 15.08 29.0631 15.8533 29.5031 16.4C29.9565 16.9333 30.5965 17.2 31.4231 17.2C31.7565 17.2 32.0498 17.1533 32.3031 17.06C32.5698 16.9533 32.8631 16.8133 33.1831 16.64C33.3831 16.52 33.5565 16.4333 33.7031 16.38C33.8498 16.3133 33.9965 16.28 34.1431 16.28C34.3565 16.28 34.5365 16.3733 34.6831 16.56C34.8298 16.7467 34.9031 16.98 34.9031 17.26C34.9031 17.4867 34.8498 17.6867 34.7431 17.86C34.6498 18.02 34.4898 18.1667 34.2631 18.3C33.8498 18.5667 33.3698 18.78 32.8231 18.94C32.2765 19.0867 31.7165 19.16 31.1431 19.16ZM45.1688 17.06C45.4354 17.3133 45.5688 17.6 45.5688 17.92C45.5688 18.2267 45.4554 18.5 45.2288 18.74C45.0154 18.98 44.7621 19.1 44.4688 19.1C44.1754 19.1 43.9021 18.98 43.6488 18.74L38.9688 14.5V17.92C38.9688 18.3067 38.8488 18.6 38.6088 18.8C38.3688 19 38.0688 19.1 37.7088 19.1C37.3488 19.1 37.0488 19 36.8088 18.8C36.5821 18.6 36.4688 18.3067 36.4688 17.92V5.98C36.4688 5.59333 36.5821 5.3 36.8088 5.1C37.0488 4.9 37.3488 4.8 37.7088 4.8C38.0688 4.8 38.3688 4.9 38.6088 5.1C38.8488 5.3 38.9688 5.59333 38.9688 5.98V13.5L43.2488 9.4C43.4888 9.16 43.7621 9.04 44.0688 9.04C44.3754 9.04 44.6421 9.15333 44.8688 9.38C45.0954 9.60667 45.2088 9.87333 45.2088 10.18C45.2088 10.4867 45.0821 10.7667 44.8288 11.02L41.6888 13.94L45.1688 17.06Z" fill="#0EA5E9"/>
<path d="M51.2923 8.98C52.6523 8.98 53.659 9.32 54.3123 10C54.979 10.6667 55.3123 11.6867 55.3123 13.06V17.94C55.3123 18.3 55.2057 18.5867 54.9923 18.8C54.779 19 54.4857 19.1 54.1123 19.1C53.7657 19.1 53.479 18.9933 53.2523 18.78C53.039 18.5667 52.9323 18.2867 52.9323 17.94V17.5C52.7057 18.02 52.3457 18.4267 51.8523 18.72C51.3723 19.0133 50.8123 19.16 50.1723 19.16C49.519 19.16 48.9257 19.0267 48.3923 18.76C47.859 18.4933 47.439 18.1267 47.1323 17.66C46.8257 17.1933 46.6723 16.6733 46.6723 16.1C46.6723 15.38 46.8523 14.8133 47.2123 14.4C47.5857 13.9867 48.1857 13.6867 49.0123 13.5C49.839 13.3133 50.979 13.22 52.4323 13.22H52.9323V12.76C52.9323 12.1067 52.7923 11.6333 52.5123 11.34C52.2323 11.0333 51.779 10.88 51.1523 10.88C50.7657 10.88 50.3723 10.94 49.9723 11.06C49.5723 11.1667 49.099 11.3267 48.5523 11.54C48.2057 11.7133 47.9523 11.8 47.7923 11.8C47.5523 11.8 47.3523 11.7133 47.1923 11.54C47.0457 11.3667 46.9723 11.14 46.9723 10.86C46.9723 10.6333 47.0257 10.44 47.1323 10.28C47.2523 10.1067 47.4457 9.94667 47.7123 9.8C48.179 9.54667 48.7323 9.34667 49.3723 9.2C50.0257 9.05333 50.6657 8.98 51.2923 8.98ZM50.6723 17.36C51.339 17.36 51.879 17.14 52.2923 16.7C52.719 16.2467 52.9323 15.6667 52.9323 14.96V14.54H52.5723C51.679 14.54 50.9857 14.58 50.4923 14.66C49.999 14.74 49.6457 14.88 49.4323 15.08C49.219 15.28 49.1123 15.5533 49.1123 15.9C49.1123 16.3267 49.259 16.68 49.5523 16.96C49.859 17.2267 50.2323 17.36 50.6723 17.36ZM63.2131 9.02C63.5598 8.99333 63.8331 9.06667 64.0331 9.24C64.2331 9.41333 64.3331 9.67333 64.3331 10.02C64.3331 10.38 64.2465 10.6467 64.0731 10.82C63.8998 10.9933 63.5865 11.1067 63.1331 11.16L62.5331 11.22C61.7465 11.3 61.1665 11.5667 60.7931 12.02C60.4331 12.4733 60.2531 13.04 60.2531 13.72V17.92C60.2531 18.3067 60.1331 18.6067 59.8931 18.82C59.6531 19.02 59.3531 19.12 58.9931 19.12C58.6331 19.12 58.3331 19.02 58.0931 18.82C57.8665 18.6067 57.7531 18.3067 57.7531 17.92V10.18C57.7531 9.80667 57.8665 9.52 58.0931 9.32C58.3331 9.12 58.6265 9.02 58.9731 9.02C59.3198 9.02 59.5998 9.12 59.8131 9.32C60.0265 9.50667 60.1331 9.78 60.1331 10.14V10.94C60.3865 10.3533 60.7598 9.9 61.2531 9.58C61.7598 9.26 62.3198 9.08 62.9331 9.04L63.2131 9.02ZM71.2878 17.26C71.9545 17.3 72.2878 17.6 72.2878 18.16C72.2878 18.48 72.1545 18.7267 71.8878 18.9C71.6345 19.06 71.2678 19.1267 70.7878 19.1L70.2478 19.06C68.0078 18.9 66.8878 17.7 66.8878 15.46V11.1H65.8878C65.5278 11.1 65.2478 11.02 65.0478 10.86C64.8611 10.7 64.7678 10.4667 64.7678 10.16C64.7678 9.85333 64.8611 9.62 65.0478 9.46C65.2478 9.3 65.5278 9.22 65.8878 9.22H66.8878V7.38C66.8878 7.02 67.0011 6.73333 67.2278 6.52C67.4545 6.30667 67.7611 6.2 68.1478 6.2C68.5211 6.2 68.8211 6.30667 69.0478 6.52C69.2745 6.73333 69.3878 7.02 69.3878 7.38V9.22H71.0878C71.4478 9.22 71.7211 9.3 71.9078 9.46C72.1078 9.62 72.2078 9.85333 72.2078 10.16C72.2078 10.4667 72.1078 10.7 71.9078 10.86C71.7211 11.02 71.4478 11.1 71.0878 11.1H69.3878V15.64C69.3878 16.6267 69.8411 17.1533 70.7478 17.22L71.2878 17.26Z" fill="#042168"/>
</svg>
