<svg width="24" height="24" viewBox="0 0 24 24" fill="none" xmlns="http://www.w3.org/2000/svg">
<g filter="url(#filter0_i_8549_8675)">
<path d="M17.5 18.7519L13.25 18.7519C13.217 18.7519 13.1843 18.7454 13.1539 18.7327C13.1234 18.72 13.0958 18.7014 13.0725 18.678C13.0493 18.6546 13.0309 18.6268 13.0185 18.5962C13.006 18.5657 12.9997 18.5329 13 18.4999L13 17.4999C13 17.4049 12.973 17.3118 12.9219 17.2315C12.8709 17.1513 12.7981 17.0873 12.712 17.0469C12.6456 17.0161 12.5732 17.0001 12.5 16.9999C12.383 16.9995 12.2696 17.0406 12.18 17.1159L9.18 19.6159C9.12373 19.6629 9.07846 19.7216 9.04739 19.7879C9.01633 19.8543 9.00022 19.9267 9.00022 19.9999C9.00022 20.0732 9.01633 20.1456 9.04739 20.2119C9.07846 20.2783 9.12373 20.337 9.18 20.3839L12.18 22.8839C12.253 22.9447 12.3418 22.9835 12.436 22.9956C12.5303 23.0078 12.626 22.9929 12.712 22.9526C12.7981 22.9123 12.8709 22.8483 12.9219 22.7681C12.9729 22.688 13 22.595 13 22.4999L13 21.4999C13 21.4336 13.0263 21.3701 13.0732 21.3232C13.1201 21.2763 13.1837 21.2499 13.25 21.2499L17.5 21.2499C18.6268 21.2486 19.707 20.8004 20.5037 20.0037C21.3005 19.2069 21.7487 18.1267 21.75 16.9999L21.75 6.99994C21.7487 5.87318 21.3005 4.79294 20.5037 3.9962C19.707 3.19946 18.6268 2.75127 17.5 2.74994C17.1685 2.74994 16.8505 2.88164 16.6161 3.11606C16.3817 3.35048 16.25 3.66842 16.25 3.99994C16.25 4.33146 16.3817 4.64941 16.6161 4.88383C16.8505 5.11825 17.1685 5.24994 17.5 5.24994C17.964 5.25047 18.4088 5.43502 18.7369 5.76309C19.0649 6.09116 19.2495 6.53598 19.25 6.99994L19.25 16.9999C19.25 17.4643 19.0657 17.9096 18.7376 18.2381C18.4094 18.5666 17.9643 18.7514 17.5 18.7519Z" fill="#22C55E"/>
</g>
<g filter="url(#filter1_i_8549_8675)">
<path d="M11.82 1.118C11.7307 1.04192 11.6173 1.0001 11.5 1C11.4267 1.00017 11.3544 1.01621 11.288 1.047C11.2019 1.08731 11.129 1.15134 11.078 1.23158C11.027 1.31181 10.9999 1.40492 11 1.5L11 2.5C11 2.5663 10.9736 2.62989 10.9268 2.67678C10.8799 2.72366 10.8163 2.75 10.75 2.75L6.49998 2.75C5.37322 2.75132 4.29298 3.19952 3.49624 3.99626C2.69949 4.793 2.2513 5.87324 2.24998 7L2.24998 17C2.2513 18.1268 2.6995 19.207 3.49624 20.0037C4.29298 20.8005 5.37322 21.2487 6.49998 21.25C6.8315 21.25 7.14945 21.1183 7.38387 20.8839C7.61829 20.6495 7.74998 20.3315 7.74998 20C7.74998 19.6685 7.61829 19.3505 7.38387 19.1161C7.14944 18.8817 6.8315 18.75 6.49998 18.75C6.03601 18.7495 5.5912 18.5649 5.26313 18.2369C4.93505 17.9088 4.75051 17.464 4.74998 17L4.74998 7C4.75051 6.53603 4.93505 6.09122 5.26313 5.76315C5.5912 5.43507 6.03601 5.25053 6.49998 5.25L10.75 5.25C10.8163 5.25 10.8799 5.27634 10.9268 5.32322C10.9736 5.37011 11 5.4337 11 5.5L11 6.5C11 6.59501 11.0271 6.68804 11.0781 6.7682C11.1291 6.84836 11.2019 6.91233 11.2879 6.95262C11.374 6.99291 11.4697 7.00786 11.5639 6.9957C11.6582 6.98355 11.747 6.94481 11.82 6.884L14.82 4.384C14.8762 4.33708 14.9215 4.27836 14.9526 4.212C14.9837 4.14564 14.9998 4.07327 14.9998 4C14.9998 3.92673 14.9837 3.85436 14.9526 3.788C14.9215 3.72164 14.8762 3.66292 14.82 3.616L11.82 1.118Z" fill="#22C55E"/>
</g>
<defs>
<filter id="filter0_i_8549_8675" x="9.00024" y="2.75" width="12.7498" height="20.2498" filterUnits="userSpaceOnUse" color-interpolation-filters="sRGB">
<feFlood flood-opacity="0" result="BackgroundImageFix"/>
<feBlend mode="normal" in="SourceGraphic" in2="BackgroundImageFix" result="shape"/>
<feColorMatrix in="SourceAlpha" type="matrix" values="0 0 0 0 0 0 0 0 0 0 0 0 0 0 0 0 0 0 127 0" result="hardAlpha"/>
<feOffset dy="-1"/>
<feComposite in2="hardAlpha" operator="arithmetic" k2="-1" k3="1"/>
<feColorMatrix type="matrix" values="0 0 0 0 0 0 0 0 0 0 0 0 0 0 0 0 0 0 0.25 0"/>
<feBlend mode="normal" in2="shape" result="effect1_innerShadow_8549_8675"/>
</filter>
<filter id="filter1_i_8549_8675" x="2.25" y="1" width="12.7498" height="20.25" filterUnits="userSpaceOnUse" color-interpolation-filters="sRGB">
<feFlood flood-opacity="0" result="BackgroundImageFix"/>
<feBlend mode="normal" in="SourceGraphic" in2="BackgroundImageFix" result="shape"/>
<feColorMatrix in="SourceAlpha" type="matrix" values="0 0 0 0 0 0 0 0 0 0 0 0 0 0 0 0 0 0 127 0" result="hardAlpha"/>
<feOffset dy="-1"/>
<feComposite in2="hardAlpha" operator="arithmetic" k2="-1" k3="1"/>
<feColorMatrix type="matrix" values="0 0 0 0 0 0 0 0 0 0 0 0 0 0 0 0 0 0 0.25 0"/>
<feBlend mode="normal" in2="shape" result="effect1_innerShadow_8549_8675"/>
</filter>
</defs>
</svg>
