<svg width="24" height="24" viewBox="0 0 24 24" fill="none" xmlns="http://www.w3.org/2000/svg">
<g clip-path="url(#clip0_8549_8658)">
<g filter="url(#filter0_i_8549_8658)">
<path d="M22.272 9.373C22.3492 9.1874 22.3891 8.9884 22.3893 8.78738C22.3895 8.58636 22.3501 8.38727 22.2733 8.20151C22.1964 8.01575 22.0837 7.84695 21.9416 7.70479C21.7995 7.56262 21.6308 7.44988 21.445 7.373L15.4 4.872C15.3541 4.85329 15.3149 4.82132 15.2873 4.78016C15.2596 4.73901 15.2449 4.69056 15.245 4.641V1.529C15.2445 1.12417 15.0836 0.736018 14.7977 0.449475C14.5117 0.162932 14.1239 0.00132178 13.719 0L3.14002 0C2.73432 0.000529981 2.34542 0.162065 2.05874 0.449126C1.77205 0.736187 1.61102 1.1253 1.61102 1.531V16.343C1.61155 16.7485 1.77295 17.1373 2.0598 17.4239C2.34664 17.7106 2.7355 17.8717 3.14102 17.872H3.66302C3.69952 17.8722 3.73553 17.8803 3.76855 17.8959C3.80158 17.9114 3.83082 17.9339 3.85424 17.9619C3.87765 17.9899 3.89469 18.0227 3.90415 18.0579C3.91361 18.0932 3.91528 18.13 3.90902 18.166C3.85024 18.5078 3.9095 18.8595 4.07706 19.1631C4.24462 19.4668 4.51051 19.7045 4.83102 19.837L14.605 23.884C14.7906 23.9613 14.9896 24.0013 15.1907 24.0016C15.3917 24.0018 15.5909 23.9624 15.7767 23.8856C15.9625 23.8088 16.1313 23.696 16.2734 23.5539C16.4156 23.4117 16.5283 23.2428 16.605 23.057L22.272 9.373ZM3.61102 2.252C3.61076 2.219 3.61703 2.18628 3.62948 2.15571C3.64192 2.12515 3.66029 2.09736 3.68354 2.07393C3.70678 2.0505 3.73443 2.03191 3.76489 2.01922C3.79535 2.00653 3.82802 2 3.86102 2H13C13.0329 1.99987 13.0655 2.00624 13.0958 2.01876C13.1262 2.03128 13.1539 2.04969 13.1771 2.07293C13.2003 2.09617 13.2187 2.12378 13.2313 2.15417C13.2438 2.18456 13.2502 2.21713 13.25 2.25V3.606C13.25 3.64703 13.2398 3.68742 13.2205 3.72361C13.2012 3.75979 13.1732 3.79066 13.1391 3.81349C13.105 3.83632 13.0658 3.8504 13.025 3.8545C12.9842 3.8586 12.943 3.85259 12.905 3.837L11.673 3.327C11.4874 3.24993 11.2884 3.21019 11.0874 3.21005C10.8865 3.2099 10.6874 3.24935 10.5017 3.32615C10.316 3.40295 10.1472 3.51559 10.005 3.65764C9.86281 3.79968 9.75001 3.96835 9.67302 4.154L4.88402 15.717C4.86494 15.7625 4.83284 15.8015 4.79175 15.8288C4.75066 15.8562 4.70241 15.8709 4.65302 15.871H3.86302C3.7968 15.8707 3.73336 15.8443 3.68654 15.7975C3.63971 15.7507 3.61329 15.6872 3.61302 15.621L3.61102 2.252ZM15.033 21.624C15.0204 21.6543 15.002 21.6819 14.9787 21.7051C14.9555 21.7283 14.9279 21.7467 14.8975 21.7593C14.8671 21.7718 14.8346 21.7782 14.8017 21.7782C14.7689 21.7782 14.7364 21.7716 14.706 21.759L6.26402 18.259C6.23367 18.2464 6.20611 18.228 6.18289 18.2047C6.15968 18.1815 6.14128 18.1539 6.12874 18.1235C6.1162 18.0931 6.10977 18.0606 6.10982 18.0277C6.10987 17.9949 6.1164 17.9623 6.12902 17.932L11.245 5.585C11.2575 5.55469 11.2759 5.52714 11.299 5.50394C11.3222 5.48073 11.3497 5.46233 11.38 5.44979C11.4103 5.43725 11.4427 5.43081 11.4755 5.43085C11.5083 5.43088 11.5408 5.43739 11.571 5.45L20.013 8.95C20.0434 8.96268 20.0709 8.98121 20.0941 9.00455C20.1172 9.02789 20.1356 9.05557 20.148 9.086C20.1609 9.1162 20.1675 9.14868 20.1675 9.1815C20.1675 9.21432 20.1609 9.2468 20.148 9.277L15.033 21.624Z" fill="#0A50FF"/>
</g>
</g>
<defs>
<filter id="filter0_i_8549_8658" x="1.61102" y="0" width="20.7783" height="24.0016" filterUnits="userSpaceOnUse" color-interpolation-filters="sRGB">
<feFlood flood-opacity="0" result="BackgroundImageFix"/>
<feBlend mode="normal" in="SourceGraphic" in2="BackgroundImageFix" result="shape"/>
<feColorMatrix in="SourceAlpha" type="matrix" values="0 0 0 0 0 0 0 0 0 0 0 0 0 0 0 0 0 0 127 0" result="hardAlpha"/>
<feOffset dy="-1"/>
<feComposite in2="hardAlpha" operator="arithmetic" k2="-1" k3="1"/>
<feColorMatrix type="matrix" values="0 0 0 0 0 0 0 0 0 0 0 0 0 0 0 0 0 0 0.25 0"/>
<feBlend mode="normal" in2="shape" result="effect1_innerShadow_8549_8658"/>
</filter>
<clipPath id="clip0_8549_8658">
<rect width="24" height="24" fill="white"/>
</clipPath>
</defs>
</svg>
